<svg xmlns="http://www.w3.org/2000/svg" viewBox="0 0 520 290"><defs><style>.cls-1{fill:#fff;}.cls-2{fill:#e1e9f3;}</style></defs><title>Joolr Logo</title><g id="Layer_2" data-name="Layer 2"><path class="cls-1" d="M87.43,53.46c5.76,0,7.59,4.18,7.59,7.32V215.1a22.94,22.94,0,0,1-22.49,23v.26H60.76C47.94,238.37,38,227.91,38,215.1v-3.67c0-6,2.62-8.89,5.23-9.94,1.31-.78,8.37-3.92,13.08-6V212a9.94,9.94,0,1,0,19.88,0V53.46Z"/><path class="cls-1" d="M170.34,51.63c12.56.52,22.76,10.72,22.76,23.27V215.36a23.52,23.52,0,0,1-22.76,23H156a23.67,23.67,0,0,1-23.54-23V74.9A23.38,23.38,0,0,1,156,51.63ZM164.06,221.9A10,10,0,0,0,174,211.69V78.3a10,10,0,0,0-9.94-10.2h-2.87a10.35,10.35,0,0,0-9.94,10.2V211.69a10.35,10.35,0,0,0,9.94,10.21Z"/><path class="cls-1" d="M266.59,51.63c12.56.52,22.76,10.72,22.76,23.27V215.36a23.53,23.53,0,0,1-22.76,23H252.2a23.67,23.67,0,0,1-23.53-23V74.9A23.38,23.38,0,0,1,252.2,51.63ZM260.31,221.9a10,10,0,0,0,9.94-10.21V78.3a10,10,0,0,0-9.94-10.2h-2.87a10.34,10.34,0,0,0-9.94,10.2V211.69a10.34,10.34,0,0,0,9.94,10.21Z"/><path class="cls-1" d="M393.18,218c-2.09,4.71-5.23,12-6,13.6-1.31,2.36-4.18,5-10.2,5H332V53.46h13.07a6,6,0,0,1,5.76,5.75V218Z"/><path class="cls-2" d="M397.34,159.46a5.66,5.66,0,0,1-5.49-5.23V136.45h15.7a2.9,2.9,0,0,1,3.13,2.87v20.14Z"/><path class="cls-1" d="M477.93,169.59c0-8.9-4.7-11.77-9.67-11.77h-9.94v78.72H439.49V53.46h34.26a23.05,23.05,0,0,1,23,23V133s.78,14.38-6.8,16.21c7.32,3.67,6.8,17.27,6.8,17.27v70.09H477.93ZM468.26,140c5,0,9.67-2.09,9.67-10.46V80.4c0-6.8-4.7-9.42-9.67-9.42h-9.94V140Z"/></g></svg>