<svg id="Layer_1" data-name="Layer 1" xmlns="http://www.w3.org/2000/svg" xmlns:xlink="http://www.w3.org/1999/xlink" viewBox="0 0 1584 396"><defs><style>.cls-1{fill:none;}.cls-2{clip-path:url(#clip-path);}.cls-3{fill:url(#linear-gradient);}.cls-4{clip-path:url(#clip-path-2);}.cls-5{clip-path:url(#clip-path-3);}.cls-6{clip-path:url(#clip-path-4);}.cls-7{clip-path:url(#clip-path-5);}.cls-8{clip-path:url(#clip-path-6);}</style><clipPath id="clip-path"><path class="cls-1" d="M1050.82,224.67c-6.47,0-11.76-5.3-12.35-11.77v-40h35.28c7.06,0,7.06,6.47,7.06,6.47v45.28Z"/></clipPath><linearGradient id="linear-gradient" x1="382.65" y1="-18.11" x2="1212.49" y2="461" gradientUnits="userSpaceOnUse"><stop offset="0" stop-color="#a159a3"/><stop offset="1" stop-color="#5fcbec"/></linearGradient><clipPath id="clip-path-2"><path class="cls-1" d="M485.94,175.08c0-29.33.1-58.66-.09-88,0-4.63,1.27-6.22,6-6,7.84.37,15.71.25,23.56,0,3.53-.09,4.9.82,4.89,4.66-.2,57.91-.12,115.82-.45,173.74a89.84,89.84,0,0,1-4.46,27.3c-7.94,24.42-29,40.23-56.05,41.73-11.58.64-23.14.57-34.49-2.72-25.25-7.31-41.11-26.07-43.65-52.25-.56-5.75-.56-11.55-1.05-17.31-.32-3.78.8-5.33,4.91-5.18,8.21.29,16.46.3,24.68,0,3.91-.14,4.76,1.39,4.67,4.87-.21,7.47-.32,15,2,22.21,5.63,17.25,19,22.66,34.83,22,24.47-1,33.73-17.81,34.22-36.57.75-29.5.2-59,.2-88.54Z"/></clipPath><clipPath id="clip-path-3"><path class="cls-1" d="M998.34,197.1c0,40.73-.07,81.47.1,122.2,0,4.66-1.24,6.18-5.93,5.93-7.09-.38-14.22-.24-21.32,0-3.68.1-4.91-1.29-4.9-4.9.08-56.62-.37-113.24.27-169.85.28-25.39.2-50.79.33-76.18,0-4.7,1.33-6.17,6-5.9a167,167,0,0,0,19.63,0c4.74-.28,5.94,1.36,5.92,6C998.26,115.26,998.33,156.18,998.34,197.1Z"/></clipPath><clipPath id="clip-path-4"><path class="cls-1" d="M1142,165.82c3.76-5.91,6.9-11.91,11.26-17.23,10.35-12.61,32-18.59,47.45-12.89,2.37.88,3.22,2.1,3.2,4.47-.07,7.47-.14,14.94,0,22.41.08,3.54-1.52,4.47-4.75,4.48-7.45,0-14.92-.41-22.3,1.39-18,4.41-29.44,17.78-31.42,36.27-1.58,14.73-.7,29.47-.83,44.2q-.31,35.29,0,70.6c0,4.35-1.06,6-5.61,5.71-6.9-.38-13.84-.29-20.75,0-3.87.15-5.24-1-5.13-5,.27-9.33.09-18.68.09-28,0-49.32.07-98.63-.11-147.94,0-4.89,1.12-6.81,6.19-6.22a42.34,42.34,0,0,0,11.19,0c6.06-.95,7.81,2.09,8.12,7.26A88.89,88.89,0,0,0,1142,165.82Z"/></clipPath><clipPath id="clip-path-5"><path class="cls-1" d="M731.23,209.88a137.81,137.81,0,0,0-3.34-19.12c-7.33-26.53-23-45.15-50.17-52.9-15.9-4.53-32.08-5.19-48.33-3-30.51,4.14-52.9,19.25-62.42,49.49-10.21,32.43-9.58,65.16,1.1,97.38,4,12.12,10.88,22.93,21.87,30.41,4.54,4.64,10.25,7.48,16.15,9.7,24.2,9.12,48.83,9.55,73.53,2.48,20.6-5.9,35.33-18.89,43.61-38.69C733.44,261.23,734.11,235.72,731.23,209.88Zm-33.4,52.95c-5.17,25.71-21.36,39.42-47.55,40.22-13,.39-25.26-1.25-36.56-8h0c-13.31-9.93-18.06-24.28-20.05-39.8-2.5-19.37-2.39-38.76,2-57.88,5.7-24.56,21.1-36.71,47.34-37.82a73.77,73.77,0,0,1,23.8,2.84c18.54,5.39,27,19.22,30.89,37,2,9.36,2.39,18.84,2.77,28.35C699.68,239.46,700.17,251.19,697.83,262.83Z"/></clipPath><clipPath id="clip-path-6"><path class="cls-1" d="M928.24,203.37c-2.69-18.56-9.14-35.43-23.42-48.83-16.46-15.43-36.21-20.37-57.9-20.41-9.74-1-19.35.54-28.75,2.58-30.69,6.65-48.85,26.08-56,56.29a21.8,21.8,0,0,0-1.37,3.65c-5,26.36-5,52.67,2.43,78.55,6.68,23.25,20.89,40.32,44.38,48.18,22,7.35,44.42,7.61,66.74,1.87,25.13-6.47,41.55-22.61,49.5-47.2S931.87,228.48,928.24,203.37Zm-34.08,64.17c-5.3,19.53-17.09,31.68-37.8,34.59-17.31,2.43-33.69,1.27-48-10-10.27-8.05-13.93-19.67-16-31.72-3.78-22.06-3.64-44.16,1.91-66,5.25-20.63,19.46-32.07,40.62-34.16,10-1,19.75-.61,29.34,2.07,18.94,5.27,27.16,19.56,31,37.43,2.32,10.66,2.59,21.44,2.38,32.67C898,244,897.32,255.9,894.16,267.54Z"/></clipPath></defs><g class="cls-2"><rect class="cls-3" x="354.92" y="29.91" width="885.29" height="383.07"/></g><g class="cls-4"><rect class="cls-3" x="354.92" y="29.91" width="885.29" height="383.07"/></g><g class="cls-5"><rect class="cls-3" x="354.92" y="29.91" width="885.29" height="383.07"/></g><g class="cls-6"><rect class="cls-3" x="354.92" y="29.91" width="885.29" height="383.07"/></g><g class="cls-7"><rect class="cls-3" x="354.92" y="29.91" width="885.29" height="383.07"/></g><g class="cls-8"><rect class="cls-3" x="354.92" y="29.91" width="885.29" height="383.07"/></g></svg>