<svg xmlns="http://www.w3.org/2000/svg" viewBox="0 0 520 290"><defs><style>.cls-1{fill:#e1e9f3;}.cls-2{fill:#414042;}.cls-3{fill:#19a2c0;}</style></defs><title>Joolr Logo</title><g id="Layer_1" data-name="Layer 1"><rect class="cls-1" x="-153.13" y="-2.32" width="842.12" height="293.78"/></g><g id="Layer_2" data-name="Layer 2"><path class="cls-2" d="M73.23,45.72c5.76,0,7.59,4.19,7.59,7.33V207.36a22.94,22.94,0,0,1-22.5,23v.26H46.55c-12.81,0-22.75-10.46-22.75-23.28V203.7c0-6,2.61-8.89,5.23-9.94,1.31-.78,8.37-3.92,13.08-6v16.47a9.94,9.94,0,1,0,19.87,0V45.72Z"/><path class="cls-2" d="M156.14,43.89a23.58,23.58,0,0,1,22.75,23.28V207.62a23.52,23.52,0,0,1-22.75,23H141.75a23.69,23.69,0,0,1-23.54-23V67.17a23.39,23.39,0,0,1,23.54-23.28Zm-6.28,170.27A10,10,0,0,0,159.8,204V70.57a10,10,0,0,0-9.94-10.2H147a10.33,10.33,0,0,0-9.94,10.2V204a10.33,10.33,0,0,0,9.94,10.2Z"/><path class="cls-2" d="M252.39,43.89a23.58,23.58,0,0,1,22.75,23.28V207.62a23.52,23.52,0,0,1-22.75,23H238a23.68,23.68,0,0,1-23.54-23V67.17A23.38,23.38,0,0,1,238,43.89Zm-6.28,170.27a10,10,0,0,0,9.94-10.2V70.57a10,10,0,0,0-9.94-10.2h-2.88a10.34,10.34,0,0,0-9.94,10.2V204a10.34,10.34,0,0,0,9.94,10.2Z"/><path class="cls-2" d="M379,210.24c-2.1,4.71-5.24,12-6,13.6-1.31,2.35-4.19,5-10.2,5h-45V45.72h13.08a6,6,0,0,1,5.75,5.76V210.24Z"/><path class="cls-3" d="M383.14,151.73a5.66,5.66,0,0,1-5.49-5.23V128.71h15.69a2.91,2.91,0,0,1,3.14,2.88v20.14Z"/><path class="cls-2" d="M463.73,161.85c0-8.89-4.71-11.77-9.67-11.77h-9.94v78.73H425.28V45.72h34.27a23,23,0,0,1,23,23v56.49s.79,14.39-6.8,16.22c7.33,3.66,6.8,17.26,6.8,17.26v70.1H463.73Zm-9.67-29.55c5,0,9.67-2.1,9.67-10.47V72.66c0-6.8-4.71-9.41-9.67-9.41h-9.94V132.3Z"/></g></svg>